PathFileType	4	(X/Y/Z)	S:\OneDrive - The University of Tokyo\ìåëÂéˆã∆\ÉoÉCÉÅÉJ\ë™íË\hirabayashi_2\Trimmed\Trimmed_BarL40kg1.trc
DataRate	CameraRate	NumFrames	NumMarkers	Units	OrigDataRate	OrigDataStartFrame	OrigNumFrames
200.00	200.00	       24	12	mm	200.00	121	       150
Frame#	Time	BarR0			BarR50			BarR100			BarR130			BarR180			BarR230			BarL0			BarL50			BarL100			BarL130			BarL180			BarL230			
		X1	Y1	Z1	X2	Y2	Z2	X3	Y3	Z3	X4	Y4	Z4	X5	Y5	Z5	X6	Y6	Z6	X7	Y7	Z7	X8	Y8	Z8	X9	Y9	Z9	X10	Y10	Z10	X11	Y11	Z11	X12	Y12	Z12	

121	0.600	-575.94849	2755.37549	1664.43201	-604.78906	2306.16992	1662.34058	-637.33813	1851.81995	1661.99976	-660.76135	1349.39136	1661.92224	-690.08575	902.69446	1662.69434	-713.82959	454.65054	1664.06519	-1113.31738	2807.28857	1664.62012	-1140.57410	2355.68774	1658.49329	-1171.22266	1905.54370	1653.16150	-1198.57507	1404.10657	1653.02625	-1227.02478	952.72589	1658.79688	-1244.51270	506.89450	1667.44629	
122	0.605	-575.95056	2755.39014	1664.41626	-604.82361	2306.17505	1662.34973	-637.32153	1851.82410	1662.01404	-660.77271	1349.39502	1661.95593	-690.08020	902.69781	1662.69922	-713.82123	454.65695	1664.05347	-1113.33459	2807.27588	1664.61646	-1140.55212	2355.69116	1658.49255	-1171.21045	1905.54614	1653.16284	-1198.56458	1404.09607	1653.03503	-1227.01221	952.71942	1658.78870	-1244.50781	506.93436	1667.46265	
123	0.610	-575.95538	2755.39526	1664.42725	-604.81134	2306.17627	1662.33374	-637.34448	1851.84216	1662.02515	-660.78406	1349.40906	1661.94434	-690.09454	902.70184	1662.68335	-713.79578	454.62888	1664.05505	-1113.33618	2807.27856	1664.61304	-1140.55444	2355.67017	1658.49414	-1171.22034	1905.54871	1653.16602	-1198.56934	1404.12903	1653.03149	-1226.98657	952.75024	1658.78503	-1244.51587	506.93188	1667.46069	
124	0.615	-575.94049	2755.37671	1664.43127	-604.83130	2306.17407	1662.34875	-637.31860	1851.82263	1661.99622	-660.78424	1349.37439	1661.93372	-690.09424	902.71588	1662.71008	-713.83057	454.65640	1664.05713	-1113.34839	2807.28394	1664.60352	-1140.57446	2355.67383	1658.47766	-1171.24805	1905.56287	1653.16052	-1198.57031	1404.12537	1653.02917	-1227.02454	952.73413	1658.78162	-1244.51367	506.92056	1667.44238	
125	0.620	-575.95398	2755.37866	1664.42786	-604.81995	2306.20117	1662.32483	-637.32373	1851.80579	1661.98877	-660.78168	1349.39392	1661.91980	-690.09076	902.69305	1662.69055	-713.81201	454.65491	1664.04907	-1113.32849	2807.27295	1664.61975	-1140.55664	2355.67505	1658.48914	-1171.21802	1905.56750	1653.14600	-1198.57373	1404.12439	1653.02026	-1227.01331	952.71094	1658.78796	-1244.51038	506.92505	1667.46301	
126	0.625	-575.94940	2755.37378	1664.41516	-604.79614	2306.18457	1662.33691	-637.31409	1851.81653	1662.02014	-660.78674	1349.41064	1661.92261	-690.09326	902.72974	1662.68384	-713.80042	454.63589	1664.05725	-1113.34106	2807.26782	1664.61292	-1140.56458	2355.66089	1658.47693	-1171.20898	1905.54480	1653.15210	-1198.57910	1404.14087	1653.02686	-1227.00549	952.73523	1658.78430	-1244.51355	506.92209	1667.46265	
127	0.630	-575.96051	2755.39429	1664.42554	-604.82172	2306.17236	1662.34802	-637.33472	1851.81653	1662.02637	-660.78735	1349.40259	1661.93091	-690.07092	902.72980	1662.70483	-713.82776	454.64505	1664.04028	-1113.32056	2807.26611	1664.59814	-1140.55444	2355.66382	1658.48120	-1171.22803	1905.54114	1653.15466	-1198.55798	1404.16125	1653.03735	-1227.01135	952.74261	1658.78430	-1244.49939	506.89917	1667.45837	
128	0.635	-575.94055	2755.39502	1664.44055	-604.78442	2306.17236	1662.32666	-637.32153	1851.83191	1662.00647	-660.79065	1349.39429	1661.93542	-690.07971	902.69366	1662.70837	-713.81519	454.64075	1664.05542	-1113.34155	2807.27173	1664.60864	-1140.55457	2355.68433	1658.49463	-1171.22058	1905.55933	1653.16187	-1198.58008	1404.15173	1653.04211	-1227.00842	952.73486	1658.79858	-1244.50696	506.91104	1667.45642	
129	0.640	-575.95160	2755.38159	1664.45410	-604.85138	2306.17651	1662.33765	-637.30426	1851.82043	1661.99561	-660.77985	1349.38879	1661.94373	-690.07239	902.72003	1662.70154	-713.80286	454.64056	1664.05176	-1113.29736	2807.28271	1664.60889	-1140.57434	2355.67676	1658.48022	-1171.23511	1905.55591	1653.16577	-1198.58118	1404.16333	1653.04944	-1226.99280	952.73376	1658.78333	-1244.51819	506.91833	1667.46118	
130	0.645	-575.95563	2755.39429	1664.44458	-604.79736	2306.15503	1662.34375	-637.37158	1851.85352	1662.00769	-660.78955	1349.39172	1661.91858	-690.08118	902.71167	1662.69482	-713.80481	454.64893	1664.05518	-1113.29529	2807.28101	1664.61096	-1140.56189	2355.67212	1658.50281	-1171.20935	1905.54211	1653.15723	-1198.58850	1404.10583	1653.01379	-1227.02124	952.72925	1658.78369	-1244.50610	506.91028	1667.45447	
131	0.650	-575.96442	2755.38770	1664.43591	-604.77661	2306.18945	1662.31885	-637.31635	1851.80847	1661.99280	-660.78656	1349.39075	1661.93066	-690.07959	902.71069	1662.69373	-713.82355	454.65512	1664.04285	-1113.35718	2807.22803	1664.62830	-1140.58899	2355.66406	1658.48816	-1171.24707	1905.56628	1653.14868	-1198.57153	1404.12146	1653.01904	-1227.00305	952.72565	1658.76941	-1244.52600	506.92197	1667.44788	
132	0.655	-575.95715	2755.37109	1664.42053	-604.81470	2306.16162	1662.32410	-637.34882	1851.84192	1661.98792	-660.77533	1349.38855	1661.93579	-690.09918	902.68524	1662.67566	-713.81793	454.65631	1664.03979	-1113.33240	2807.27222	1664.62012	-1140.58105	2355.68823	1658.47559	-1171.23657	1905.56628	1653.15942	-1198.58765	1404.12964	1653.03162	-1226.99683	952.71967	1658.78589	-1244.50269	506.90604	1667.44958	
133	0.660	-575.95679	2755.38379	1664.42407	-604.79553	2306.15723	1662.33801	-637.33411	1851.80798	1662.01172	-660.77832	1349.26440	1661.93140	-690.07263	902.73804	1662.68469	-713.82410	454.65131	1664.04309	-1113.30957	2807.27661	1664.61682	-1140.58337	2355.69922	1658.47144	-1171.21326	1905.56238	1653.15369	-1198.48621	1404.51538	1652.46375	-1227.00159	952.74854	1658.78088	-1244.51172	506.92819	1667.44324	
134	0.665	-575.94849	2755.38062	1664.42810	-604.83087	2306.17236	1662.35632	-637.32050	1851.83728	1662.01343	-660.78961	1349.38782	1661.94800	-690.08667	902.69635	1662.69824	-713.80652	454.64233	1664.04456	-1113.32141	2807.27979	1664.60986	-1140.57629	2355.66895	1658.49304	-1171.23389	1905.54443	1653.16980	-1198.57849	1404.15173	1653.03137	-1226.99280	952.73792	1658.78821	-1244.51050	506.91983	1667.46558	
135	0.670	-575.95337	2755.37329	1664.43237	-604.81525	2306.16602	1662.33508	-637.30359	1851.80811	1662.01746	-660.79620	1349.40491	1661.92664	-690.08856	902.70447	1662.68445	-713.81982	454.68216	1664.04126	-1113.28027	2807.28979	1664.62109	-1140.55542	2355.68555	1658.48657	-1171.23840	1905.55676	1653.15369	-1198.50549	1404.52234	1652.47437	-1227.00598	952.72772	1658.79138	-1244.50281	506.91913	1667.46155	
136	0.675	-575.94623	2755.36987	1664.44006	-604.78632	2306.16943	1662.33887	-637.30542	1851.82422	1662.00891	-660.78394	1349.29407	1661.93628	-690.07361	902.71899	1662.69641	-713.80322	454.65735	1664.03955	-1113.31494	2807.27490	1664.60974	-1140.57361	2355.67529	1658.47888	-1171.22229	1905.52234	1653.16455	-1198.47925	1404.53650	1652.46069	-1227.00122	952.73303	1658.78162	-1244.50745	506.93695	1667.46057	
137	0.680	-575.95154	2755.37500	1664.43311	-604.78180	2306.16553	1662.31921	-637.30859	1851.81372	1662.01196	-660.78894	1349.26392	1661.92639	-690.09027	902.71088	1662.68689	-713.82281	454.65952	1664.04272	-1113.32629	2807.27026	1664.63306	-1140.56860	2355.67578	1658.48694	-1171.21643	1905.54907	1653.15344	-1198.48572	1404.51038	1652.45837	-1226.99854	952.73212	1658.78796	-1244.51147	506.90277	1667.44592	
138	0.685	-575.95667	2755.37964	1664.43384	-604.78540	2306.17847	1662.32214	-637.30817	1851.79968	1662.01917	-660.77692	1349.39697	1661.94373	-690.08282	902.71942	1662.70386	-713.82538	454.65192	1664.03613	-1113.31274	2807.29761	1664.62585	-1140.55652	2355.67993	1658.48706	-1171.23975	1905.55566	1653.14893	-1198.48584	1404.52612	1652.47974	-1227.00317	952.73511	1658.79297	-1244.52954	506.94727	1667.45422	
139	0.690	-575.94354	2755.36743	1664.42041	-604.80341	2306.16992	1662.34009	-637.29553	1851.79456	1662.01099	-660.78485	1349.27734	1661.91248	-690.09772	902.69635	1662.70251	-713.81946	454.66296	1664.05603	-1113.32202	2807.29932	1664.61121	-1140.56555	2355.69653	1658.47571	-1171.24072	1905.55444	1653.15479	-1198.49060	1404.50586	1652.47058	-1227.00647	952.73230	1658.80920	-1244.50537	506.91409	1667.46033	
140	0.695	-575.95313	2755.40015	1664.42700	-604.81403	2306.16968	1662.32922	-637.32233	1851.82813	1661.99817	-660.78424	1349.37427	1661.93799	-690.07648	902.72522	1662.68994	-713.81360	454.65210	1664.05103	-1113.30786	2807.29199	1664.62500	-1140.57678	2355.68701	1658.47632	-1171.23010	1905.54761	1653.16528	-1198.58057	1404.14246	1653.03711	-1226.99402	952.75220	1658.78503	-1244.51794	506.93365	1667.45850	
141	0.700	-575.95270	2755.38110	1664.42981	-604.81335	2306.17310	1662.34277	-637.32605	1851.86487	1662.00378	-660.77612	1349.25208	1661.93567	-690.07965	902.72784	1662.69690	-713.80756	454.63321	1664.04016	-1113.34045	2807.27368	1664.59790	-1140.57703	2355.67773	1658.49292	-1171.25879	1905.55945	1653.15869	-1198.48584	1404.53931	1652.48853	-1227.00342	952.74017	1658.78027	-1244.51282	506.91949	1667.45898	
142	0.705	-575.95135	2755.37549	1664.42554	-604.79608	2306.16284	1662.34009	-637.32434	1851.82019	1662.00183	-660.77698	1349.38086	1661.91858	-690.09381	902.71649	1662.68481	-713.80865	454.64328	1664.04480	-1113.31665	2807.27930	1664.61353	-1140.57532	2355.68066	1658.50574	-1171.23596	1905.56824	1653.15015	-1198.58728	1404.12109	1653.03552	-1226.99622	952.73059	1658.77759	-1244.50684	506.90015	1667.44934	
143	0.710	-575.94348	2755.36035	1664.43774	-604.81036	2306.18701	1662.32825	-637.32111	1851.84680	1661.99829	-660.78638	1349.41272	1661.93396	-690.08289	902.69568	1662.67847	-713.81665	454.62671	1664.04297	-1113.29688	2807.26807	1664.60608	-1140.53760	2355.67480	1658.47473	-1171.23376	1905.54456	1653.16724	-1198.58081	1404.11719	1653.03882	-1226.98584	952.74017	1658.79382	-1244.52222	506.91962	1667.46191	
144	0.715	-575.93933	2755.36938	1664.44348	-604.79865	2306.18018	1662.34277	-637.30145	1851.81726	1661.99524	-660.78540	1349.39929	1661.93860	-690.07355	902.71722	1662.70654	-713.81500	454.65359	1664.04883	-1113.33289	2807.27490	1664.61218	-1140.57471	2355.67944	1658.47900	-1171.24109	1905.54517	1653.16235	-1198.57874	1404.13489	1653.02820	-1227.00037	952.72144	1658.78833	-1244.52429	506.94736	1667.45654	
